# xmcd CD database file
#
# Track frame offsets:
#	150
#	22520
#	52727
#	77418
#	104458
#	118569
#	165629
#	195670
#	215435
#	247837
#	269747
#	294840
#	310567
#
# Disc length: 4534 seconds
#
# Revision: 0
# Processed by: cddbd v1.5.2PL0 Copyright (c) Steve Scherf et al.
# Submitted via: CDex 1.70beta2
#
DISCID=9b11b40d
DTITLE=Blue Note - Best Blue Note 100 Disc5 Big Hits
DYEAR=2009
DGENRE=Jazz
TTITLE0=True Blue
TTITLE1=Blues Walk
TTITLE2=Chittlins Con Carne
TTITLE3=Blues-Blues-Blues
TTITLE4=Bags' Groove
TTITLE5=The Sidewinder
TTITLE6=Blue Lights
TTITLE7=Congalegre
TTITLE8=Look Out
TTITLE9=Blue Rondo
TTITLE10=Cantaloupe Island
TTITLE11=La Campimania
TTITLE12=Swingin' At Sugar Ray's
EXTD=YEAR: 2009
EXTT0=
EXTT1=
EXTT2=
EXTT3=
EXTT4=
EXTT5=
EXTT6=
EXTT7=
EXTT8=
EXTT9=
EXTT10=
EXTT11=
EXTT12=
PLAYORDER=
